<!-- <?xml version="1.0" encoding="iso-8859-1"?>
<svg version="1.1" id="Layer_1" xmlns="http://www.w3.org/2000/svg" xmlns:xlink="http://www.w3.org/1999/xlink" 
	 viewBox="0 0 508 508" xml:space="preserve">
<circle style="fill:#90DFAA;" cx="254" cy="254" r="254"/>
<path style="fill:#2C9984;" d="M27.6,369.2C69.6,451.6,155.2,508,254,508s184.4-56.4,226.4-138.8H27.6z"/>
<rect x="77.2" y="293.2" style="fill:#2B3B4E;" width="239.6" height="22.4"/>
<path style="fill:#FFFFFF;" d="M285.2,293.2H64.8c-4.8,0-8.8-4-8.8-8.8V154.8c0-4.8,4-8.8,8.8-8.8h220.4c4.8,0,8.8,4,8.8,8.8v129.6
	C294.4,289.2,290.4,293.2,285.2,293.2z"/>
<g>
	<rect x="66" y="155.6" style="fill:#E6E9EE;" width="11.2" height="127.2"/>
	<rect x="86.8" y="155.6" style="fill:#E6E9EE;" width="11.2" height="127.2"/>
	<rect x="107.6" y="155.6" style="fill:#E6E9EE;" width="11.2" height="127.2"/>
	<rect x="128" y="155.6" style="fill:#E6E9EE;" width="11.2" height="127.2"/>
	<rect x="148.8" y="155.6" style="fill:#E6E9EE;" width="11.2" height="127.2"/>
	<rect x="169.6" y="155.6" style="fill:#E6E9EE;" width="11.2" height="127.2"/>
	<rect x="190.4" y="155.6" style="fill:#E6E9EE;" width="11.2" height="127.2"/>
	<rect x="211.2" y="155.6" style="fill:#E6E9EE;" width="11.2" height="127.2"/>
	<rect x="231.6" y="155.6" style="fill:#E6E9EE;" width="11.2" height="127.2"/>
	<rect x="252.4" y="155.6" style="fill:#E6E9EE;" width="11.2" height="127.2"/>
	<rect x="273.2" y="155.6" style="fill:#E6E9EE;" width="11.2" height="127.2"/>
</g>
<path style="fill:#FF7058;" d="M446.4,249.6h-8c-6.8,0-12.8-4.4-14.8-10.8l-20-61.6c-1.6-4.8-6-8-11.2-8h-72.8c-6.4,0-12,5.2-12,12
	v138.4c0,6.4,5.2,12,12,12h126.8c6.4,0,12-5.2,12-12v-58C458.4,254.8,452.8,249.6,446.4,249.6z"/>
<g>
	<path style="fill:#FFFFFF;" d="M316.4,187.2V232c0,3.2,2.8,6,6,6h21.2v-56.8h-21.2C319.2,181.2,316.4,183.6,316.4,187.2z"/>
	<path style="fill:#FFFFFF;" d="M386.8,228.4l-8-41.2c-0.8-3.6-4-6.4-8-6.4h-20V238h28C384,238,387.6,233.6,386.8,228.4z"/>
	<path style="fill:#FFFFFF;" d="M423.2,238h-18.8c-2.4,0-4.8-2-4.8-4.4l-6.4-47.2c-0.4-3.2,2-5.6,4.8-5.6h6.4L423.2,238z"/>
</g>
<path style="fill:#2B3B4E;" d="M428.4,330.8h-91.2c1.2-24.4,21.2-43.6,45.6-43.6C407.2,287.2,427.2,306.8,428.4,330.8z"/>
<circle style="fill:#324A5E;" cx="382.8" cy="333.2" r="37.2"/>
<circle style="fill:#2B3B4E;" cx="383.2" cy="333.2" r="26"/>
<circle style="fill:#E6E9EE;" cx="383.2" cy="333.2" r="22"/>
<g>
	<path style="fill:#2B3B4E;" d="M389.6,322c0,2.8-3.2,0.8-6.8,0.8s-6.8,2-6.8-0.8s3.2-4.8,6.8-4.8S389.6,319.2,389.6,322z"/>
	<path style="fill:#2B3B4E;" d="M376.4,344.4c0-2.8,3.2-0.8,6.8-0.8s6.8-2,6.8,0.8s-3.2,4.8-6.8,4.8S376.4,346.8,376.4,344.4z"/>
	<path style="fill:#2B3B4E;" d="M394.4,340c-2.8,0-0.8-3.2-0.8-6.8c0-3.6-2-6.8,0.8-6.8s4.8,3.2,4.8,6.8
		C399.2,336.8,396.8,340,394.4,340z"/>
	<path style="fill:#2B3B4E;" d="M371.6,326.4c2.8,0,0.8,3.2,0.8,6.8c0,3.6,2,6.8-0.8,6.8s-4.8-3.2-4.8-6.8
		C367.2,329.2,369.2,326.4,371.6,326.4z"/>
	<circle style="fill:#2B3B4E;" cx="383.2" cy="333.2" r="5.6"/>
</g>
<circle style="fill:#324A5E;" cx="135.2" cy="333.2" r="37.2"/>
<circle style="fill:#2B3B4E;" cx="135.2" cy="333.2" r="26"/>
<circle style="fill:#E6E9EE;" cx="135.2" cy="333.2" r="22"/>
<g>
	<path style="fill:#2B3B4E;" d="M142,322c0,2.8-3.2,0.8-6.8,0.8s-6.8,2-6.8-0.8s3.2-4.8,6.8-4.8S142,319.2,142,322z"/>
	<path style="fill:#2B3B4E;" d="M128.4,344.4c0-2.8,3.2-0.8,6.8-0.8s6.8-2,6.8,0.8s-3.2,4.8-6.8,4.8
		C131.2,349.2,128.4,346.8,128.4,344.4z"/>
	<path style="fill:#2B3B4E;" d="M146.4,340c-2.8,0-0.8-3.2-0.8-6.8c0-3.6-2-6.8,0.8-6.8s4.8,3.2,4.8,6.8S148.8,340,146.4,340z"/>
	<path style="fill:#2B3B4E;" d="M124,326.4c2.8,0,0.8,3.2,0.8,6.8c0,3.6,2,6.8-0.8,6.8s-4.8-3.2-4.8-6.8
		C119.2,329.2,121.2,326.4,124,326.4z"/>
	<circle style="fill:#2B3B4E;" cx="135.2" cy="333.2" r="5.6"/>
</g>
</svg> -->

<svg xmlns="http://www.w3.org/2000/svg" xml:space="preserve" viewBox="0 0 48 48" id="truck">
  <path d="m3 28.3 13.1-7.5 27.9 14-14 7z" opacity=".3"></path>
  <path fill="#2D3134" d="M5.3 25v3.8l2.5-1.3v-3.7z"></path>
  <path d="M5.3 25v3.8l2.5-1.3v-3.7z" opacity=".39"></path>
  <path fill="#2D3134" d="M26.2 32.9c-.7-.4-1.4-.4-1.9-.2l-1.4.7c-.6.2-.9.8-.9 1.6 0 1.5 1.3 3.4 2.8 4.2.8.4 1.5.4 2 .2 0 0 1.4-.7 1.5-.8.5-.3.7-.8.7-1.5 0-1.6-1.3-3.5-2.8-4.2z"></path>
  <path d="M26.8 39.3c.2-.1 1.4-.7 1.5-.7.5-.3.7-.8.7-1.5 0-.6-.2-1.3-.5-1.9l-1.4.7c.3.6.5 1.3.5 1.9 0 .7-.3 1.3-.8 1.5z" opacity=".39"></path>
  <path fill="#999" d="M26.9 37.4c0 1.2-.9 1.6-2.1 1-1.2-.6-2.1-2-2.1-3.2s.9-1.6 2.1-1c1.2.6 2.1 2 2.1 3.2z"></path>
  <path d="M25 38.4c-1.2-.6-2.1-2-2.1-3.2 0-.6.2-1 .6-1.2-.5.1-.8.6-.8 1.2 0 1.2.9 2.6 2.1 3.2.6.3 1.1.3 1.5.1-.4.2-.8.1-1.3-.1z" opacity=".15"></path>
  <path fill="#2D3134" d="M25.9 36.7c0 .5-.4.7-.9.4s-.9-.8-.9-1.3.4-.7.9-.4.9.8.9 1.3z"></path>
  <path d="M25.9 36.7c0 .5-.4.7-.9.4s-.9-.8-.9-1.3.4-.7.9-.4.9.8.9 1.3z" opacity=".39"></path>
  <path fill="#2D3134" d="M25.7 36.8c0 .5-.4.7-.9.4-.5-.2-.9-.8-.9-1.3s.4-.7.9-.4c.5.2.9.8.9 1.3z"></path>
  <path d="M27.6 37.8c0 1.5-1.3 2.2-2.8 1.4-1.5-.8-2.8-2.7-2.8-4.2s1.3-2.2 2.8-1.4c1.5.7 2.8 2.6 2.8 4.2z" opacity=".06"></path>
  <path fill="#2D3134" d="M9.7 24.6c-.7-.4-1.4-.4-1.9-.2l-1.4.7c-.5.2-.9.8-.9 1.6 0 1.5 1.3 3.4 2.8 4.2.8.4 1.5.4 2 .2 0 0 1.4-.7 1.5-.8.5-.3.7-.8.7-1.5 0-1.5-1.3-3.4-2.8-4.2z"></path>
  <path d="M10.3 31.1c.2-.1 1.4-.7 1.5-.7.5-.3.7-.8.7-1.5 0-.6-.2-1.3-.5-1.9l-1.4.7c.3.6.5 1.3.5 1.9 0 .7-.3 1.2-.8 1.5z" opacity=".39"></path>
  <path fill="#999" d="M10.4 29.2c0 1.2-.9 1.6-2.1 1s-2.1-2-2.1-3.2.9-1.6 2.1-1 2.1 2 2.1 3.2z"></path>
  <path d="M8.5 30.1c-1.2-.6-2.1-2-2.1-3.2 0-.6.2-1 .6-1.2-.5.1-.8.6-.8 1.2 0 1.2.9 2.6 2.1 3.2.6.3 1.1.3 1.5.1-.4.2-.8.2-1.3-.1z" opacity=".15"></path>
  <path fill="#2D3134" d="M9.4 28.5c0 .5-.4.7-.9.4-.5-.2-.9-.8-.9-1.3s.4-.7.9-.4c.5.2.9.8.9 1.3z"></path>
  <path d="M9.4 28.5c0 .5-.4.7-.9.4-.5-.2-.9-.8-.9-1.3s.4-.7.9-.4c.5.2.9.8.9 1.3z" opacity=".39"></path>
  <path fill="#2D3134" d="M9.2 28.5c0 .5-.4.7-.9.4s-.9-.8-.9-1.3.4-.7.9-.4.9.9.9 1.3z"></path>
  <path d="M11.1 29.5c0 1.5-1.3 2.2-2.8 1.4-1.5-.8-2.8-2.7-2.8-4.2s1.3-2.2 2.8-1.4c1.5.8 2.8 2.7 2.8 4.2z" opacity=".06"></path>
  <path fill="#F90" d="M17 1 3 8v15.3l18 9L35 25V10z"></path>
  <path fill="#2D3134" d="M3 22v2l18 9v-2zM35 24v2l-14 7v-2z"></path>
  <path d="M3 8v16l18 9V17z" opacity=".06"></path>
  <path d="M35 10v16l-14 7V17z" opacity=".39"></path>
  <path fill="#E5E5E5" d="m42 18-6-3-14 7v11.3c0 .3.4.5.7.3 1.2-1 3.3-.3 4.8 1.5.9 1.1 1.3 2.3 1.3 3.3l1.2.6 14-7v-8l-2-6z"></path>
  <path fill="#39C" d="m30.4 30.5-1.7-5c-.1-.2 0-.3.2-.4l12.5-6.2c.2-.1.4 0 .5.2l1.6 4.7c.1.2 0 .3-.2.4l-12.4 6.5c-.2.1-.5 0-.5-.2z"></path>
  <path d="m32.7 23.2 8.6-4.3c.2-.1.4 0 .5.2l1.5 4.4-10.6-.3z" opacity=".15"></path>
  <path fill="#2D3134" d="m43.4 23.8-.1-.3c0 .2 0 .3-.2.4l-12.4 6.5c-.2.1-.4 0-.5-.2l.1.3c.1.2.3.3.5.2l12.4-6.5c.2-.1.3-.2.2-.4z"></path>
  <path fill="#FFF" d="m33.5 30 7-3.5v5.8l-7 3.5z"></path>
  <path fill="#2D3134" d="m34 35 6-3v-4.7l-6 3z"></path>
  <path fill="#2D3134" d="M44 32v-2l-14 7v2zM28 38l2 1v-2l-2-1z"></path>
  <path fill="#FFF" d="M34 35v1l6-3v-1z"></path>
  <path fill="#39C" d="m27.5 25.3-3.8-1.9c-.1-.1-.3 0-.3.2v3c0 .2.1.4.3.4l1.3.7c.1.1.2.1.3.2l1.3 1.6h.1l2.2 1.1c.1.1.3-.1.2-.2l-1.7-5c.2 0 .2-.1.1-.1z"></path>
  <path d="m29.3 30.3-2-1h-.1l-1.3-1.6c-.1-.1-.2-.2-.3-.2l-1.3-.7c-.2-.1-.3-.2-.3-.4v-2.9l-.2-.1c-.1-.1-.3 0-.3.2v3c0 .2.1.4.3.4l1.3.7c.1.1.2.1.3.2l1.3 1.6h.1l2.2 1.1c.2.1.3 0 .3-.3z" opacity=".15"></path>
  <path fill="#FC0" d="M30 35v2l-.5-.2v-2z"></path>
  <path fill="#E5E5E5" d="M34 31v.3l6-3V28zM34 32v.3l6-3V29zM34 33v.3l6-3V30zM34 34v.3l6-3V31z"></path>
  <path fill="#2D3134" d="M23.5 28.3v.5l1 .5v-.5z" opacity=".5"></path>
  <path fill="#FFF" d="m24.5 29.5-1-.5v-.2l1 .5z" opacity=".5"></path>
  <path fill="#2D3134" d="M37.5 23.9c-.1-.1-.2-.1-.3 0l-3.8 4.3c-.1.1-.1.2 0 .3s.2.1.3 0l1-1.2v1h.3V27l2.5-2.9c.1 0 .1-.2 0-.2zM41.1 21.9c-.1-.1-.2-.1-.3 0L37 26.2c-.1.1-.1.2 0 .3.1.1.2.1.3 0l.9-1v1.1h.3v-1.4l2.6-3c.1-.1.1-.2 0-.3z"></path>
  <path fill="#FFF" d="m42 31 2-1v-2l-1 .5c-.6.3-1 .9-1 1.6v.9z"></path>
  <ellipse cx="42.7" cy="29.5" fill="#2D3134" opacity=".3" rx=".8" ry=".5" transform="rotate(129.144 42.715 29.544)"></ellipse>
  <ellipse cx="43.2" cy="29.5" fill="#2D3134" opacity=".3" rx=".8" ry=".5" transform="rotate(129.144 43.216 29.544)"></ellipse>
  <path fill="#FFF" d="m42 31 2-1v-2z" opacity=".3"></path>
  <path fill="#FFF" d="m30 37 2-1v-.9c0-.5-.5-.8-1-.6l-1 .5v2z"></path>
  <ellipse cx="31.2" cy="35.5" fill="#2D3134" opacity=".3" rx=".8" ry=".5" transform="rotate(129.144 31.216 35.544)"></ellipse>
  <ellipse cx="30.7" cy="35.5" fill="#2D3134" opacity=".3" rx=".8" ry=".5" transform="rotate(129.144 30.716 35.544)"></ellipse>
  <path fill="#FFF" d="m30 37 2-1-2-1z" opacity=".3"></path>
  <path d="m28 25-6-3v11.3c0 .3.4.5.7.3 1.2-1 3.3-.3 4.8 1.5.3.3.5.6.6 1L28 36v2l2 1v-8l-2-6z" opacity=".06"></path>
  <path d="m42 18-14 7 2 6v8l14-7v-8z" opacity=".39"></path>
</svg>